<?xml version="1.0" encoding="utf-8"?>
<!-- Generator: Adobe Illustrator 16.0.0, SVG Export Plug-In . SVG Version: 6.00 Build 0)  -->
<!DOCTYPE svg PUBLIC "-//W3C//DTD SVG 1.1//EN" "http://www.w3.org/Graphics/SVG/1.1/DTD/svg11.dtd">
<svg version="1.1" id="Capa_1" xmlns="http://www.w3.org/2000/svg" xmlns:xlink="http://www.w3.org/1999/xlink" x="0px" y="0px"
	 width="509px" height="238px" viewBox="0 0 509 238" enable-background="new 0 0 509 238" xml:space="preserve">
<g>
	<path fill-rule="evenodd" clip-rule="evenodd" fill="#4B76B5" d="M361.958,1.056c4.997,0,9.774,0.073,14.548-0.037
		c1.89-0.043,2.313,0.633,2.306,2.441c-0.067,14.661-0.115,29.323,0.046,43.982c0.035,3.267,0.736,6.567,1.46,9.777
		c0.928,4.116,3.731,6.602,7.8,7.564c4.219,0.998,8.423,0.87,12.505-0.693c4.165-1.596,6.013-5.1,6.751-9.127
		c0.605-3.307,0.837-6.72,0.857-10.089c0.091-13.927,0.036-27.856,0.036-41.783V1.288h16.874V4.37
		c0,15.261,0.246,30.528-0.097,45.781c-0.19,8.464-2.775,16.335-9.567,22.081c-3.903,3.302-8.502,5.205-13.578,6.115
		c-6.447,1.155-12.859,1.187-19.183-0.421c-8.382-2.131-14.779-6.753-18.172-15.069c-1.841-4.511-2.679-9.137-2.679-13.965
		c0.001-15.327-0.006-30.654-0.005-45.982C361.86,2.454,361.906,1.998,361.958,1.056"/>
	<path fill-rule="evenodd" clip-rule="evenodd" fill="#4B76B5" d="M491.186,50.736h16.051c-0.658,6.534-2.813,12.323-6.978,17.276
		c-6.457,7.679-15.089,10.587-24.769,11.068c-5.677,0.281-11.283-0.182-16.724-1.961c-7.647-2.5-13.8-6.958-17.973-13.932
		c-5.342-8.926-6.336-18.661-5.505-28.808c0.507-6.183,2.067-11.966,5.288-17.261c5.175-8.507,12.59-13.902,22.328-16.208
		c7.804-1.848,15.594-1.807,23.166,0.566c8.797,2.756,15.333,8.299,18.275,17.377c0.729,2.252,1.277,4.571,1.759,6.889
		c0.077,0.371-0.635,1.303-0.992,1.308c-5.063,0.082-10.13,0.083-15.193-0.015c-0.429-0.008-1.131-0.812-1.219-1.328
		c-0.981-5.844-3.979-10.523-9.697-11.946c-8.331-2.071-16.84-1.089-22.285,8.127c-4.026,6.815-4.352,14.346-3.788,21.991
		c0.315,4.276,1.388,8.328,3.411,12.141c4.119,7.761,11.457,10.047,19.281,9.251c4.939-0.502,9.329-2.355,12.059-6.706
		C489.134,56.25,489.958,53.541,491.186,50.736"/>
	<path fill-rule="evenodd" clip-rule="evenodd" fill="#4D4D54" d="M72.78,28.302H55.621c-0.921-2.541-1.514-5.093-2.716-7.315
		c-3.169-5.856-8.678-7.012-14.759-6.842c-9.702,0.272-15.324,7.301-17.376,15.266c-1.609,6.251-1.654,12.548-0.635,18.748
		c1.082,6.579,3.653,12.573,10.18,15.899c6.765,3.447,16.971,2.632,22.329-3.084c2.121-2.263,3.364-5,3.992-8.051
		c0.124-0.607,0.826-1.553,1.278-1.563c5.18-0.11,10.364-0.07,15.708-0.07c-0.855,7.009-3.126,13.139-7.755,18.294
		c-4.094,4.56-9.245,7.226-15.09,8.843c-5.266,1.458-10.59,0.508-15.881,0.721C22.01,79.664,9.508,70.766,4.978,59.142
		c-3.161-8.113-3.663-16.425-2.899-25.02c0.789-8.893,4.361-16.371,10.358-22.757c3.399-3.62,7.69-6.036,12.257-7.932
		c7.691-3.192,15.839-3.48,23.71-1.924c11.327,2.239,19.763,8.576,22.913,20.399C71.855,23.927,72.254,25.982,72.78,28.302"/>
	<path fill-rule="evenodd" clip-rule="evenodd" fill="#4D4D54" d="M92.982,53.734c-0.104,7.45,3.964,13.763,9.573,14.704
		c7.984,1.339,13.636,0.106,16.236-7.386h13.972c-0.984,6.401-4.036,11.31-9.437,14.658c-4.014,2.486-8.362,3.817-13.179,3.495
		c-2.655-0.177-5.332-0.064-7.998-0.026c-9.764,0.14-19.113-7.247-22.378-15.667c-2.401-6.192-3.029-12.562-1.873-18.976
		c1.923-10.658,8.909-19.694,20.597-22.489c9.932-2.376,19.003-0.868,26.595,6.285c4.554,4.291,6.817,9.836,7.329,16.067
		c0.201,2.448,0.248,4.909,0.479,7.354c0.156,1.633-0.52,2.014-2.044,2.008c-11.733-0.05-23.466-0.027-35.2-0.027H92.982z
		 M93.368,44.382h24.385c0.221-7.796-3.755-12.653-11.877-12.656C97.901,31.724,93.561,38.398,93.368,44.382"/>
	<path fill-rule="evenodd" clip-rule="evenodd" fill="#4D4D54" d="M305.768,79.514c-4.451-0.085-8.754-0.341-12.869-2.294
		c-7.487-3.555-12.476-9.223-14.693-17.192c-2.128-7.648-1.807-15.251,1.373-22.568c2.892-6.656,7.799-11.354,14.548-14.133
		c5.546-2.282,11.293-2.932,17.151-1.945c9.953,1.676,19.497,8.251,22.422,19.275c2.211,8.333,2.063,16.47-1.797,24.227
		c-3.464,6.963-9.137,11.59-16.723,13.482C312.137,79.125,308.911,79.153,305.768,79.514 M292.414,50.742
		c0,1.174-0.161,2.661,0.031,4.101c0.539,4.026,1.822,7.831,5.096,10.448c4.253,3.4,9.122,3.786,14.05,1.724
		c4.536-1.898,6.949-5.827,7.664-10.409c0.584-3.742,0.479-7.683,0.065-11.468c-0.67-6.119-4.815-11.959-12.706-12.39
		c-5.061-0.276-9.844,2.344-12.118,6.739C292.703,42.953,292.143,46.616,292.414,50.742"/>
	<path fill-rule="evenodd" clip-rule="evenodd" fill="#4D4D54" d="M140.6,78.283c-0.036-0.75-0.089-1.34-0.089-1.93
		c-0.003-17.192,0.027-34.383-0.037-51.573c-0.007-1.884,0.439-2.573,2.428-2.478c3.323,0.157,6.661,0.02,9.992,0.008
		c0.844-0.003,1.688,0,2.686,0v9.041c0.692-0.827,1.082-1.201,1.364-1.644c3.156-4.971,7.79-7.478,13.505-8.406
		c4.637-0.753,8.98-0.077,13.085,2.113c4.117,2.197,6.553,5.878,7.564,10.216c0.879,3.765,1.195,7.724,1.257,11.605
		c0.164,10.325,0.058,20.655,0.058,30.983v2.091h-15.021v-2.083c-0.001-10.66,0.035-21.322-0.042-31.983
		c-0.013-1.684-0.324-3.435-0.856-5.035c-1.887-5.67-7.374-6.346-11.939-5.368c-6.278,1.346-8.841,5.9-8.909,11.919
		c-0.113,10.127-0.033,20.256-0.034,30.383v2.141H140.6z"/>
	<path fill-rule="evenodd" clip-rule="evenodd" fill="#4D4D54" d="M205.45,33.226h-6.863c0-3.366-0.052-6.542,0.063-9.712
		c0.015-0.41,0.87-1.083,1.379-1.125c1.706-0.143,3.432-0.055,5.394-0.055V10.283h15.096v6.662c0,1.199,0.078,2.405-0.019,3.596
		c-0.114,1.423,0.472,1.852,1.845,1.82c3.181-0.074,6.364-0.023,9.662-0.023v10.871c-3.115,0-6.16,0.115-9.188-0.042
		c-1.896-0.098-2.354,0.579-2.336,2.375c0.081,8.126,0.062,16.254,0.022,24.381c-0.035,7.178,3.684,7.839,9.122,7.331
		c0.847-0.079,1.675-0.358,2.771-0.602c0,3.737,0.086,7.363-0.095,10.976c-0.025,0.532-1.299,1.411-2.019,1.432
		c-4.458,0.136-9.006,0.607-13.36-0.072c-4.467-0.697-7.772-3.69-9.756-7.97c-1.412-3.049-1.658-6.27-1.691-9.508
		c-0.078-8.526-0.026-17.053-0.027-25.58V33.226z"/>
	<path fill-rule="evenodd" clip-rule="evenodd" fill="#4D4D52" d="M148.533,193.484c-0.854,2.237-1.695,4.481-2.567,6.715
		c-4.051,10.378-8.109,20.754-12.168,31.129c-0.409,1.045-1.006,2.049-1.219,3.13c-0.274,1.394-1.055,1.557-2.262,1.591
		c-1.267,0.036-1.446-0.722-1.808-1.627c-4.208-10.544-8.453-21.075-12.707-31.601c-1.279-3.161-2.619-6.298-3.93-9.445
		c-0.19,0.011-0.378,0.022-0.568,0.035v22.344v22.536h-5.321V184.55c2.639,0,5.154-0.045,7.665,0.044
		c0.415,0.016,1.011,0.534,1.182,0.957c2.553,6.293,5.063,12.604,7.553,18.923c2.659,6.751,5.284,13.517,7.935,20.271
		c0.115,0.294,0.344,0.544,0.755,1.178c1.333-3.415,2.576-6.529,3.769-9.663c3.611-9.499,7.412-18.934,10.678-28.551
		c0.992-2.921,2.356-3.461,4.931-3.19c1.508,0.16,3.046,0.029,4.764,0.029v53.737h-6.23v-44.706
		C148.834,193.546,148.683,193.515,148.533,193.484"/>
	<path fill-rule="evenodd" clip-rule="evenodd" fill="#4D4D54" d="M255.619,78.453h-6.353h-8.599v-2.39
		c-0.007-17.12,0.009-34.24-0.052-51.36c-0.008-1.78,0.441-2.469,2.34-2.407c4.116,0.134,8.241,0.041,12.568,0.041v10.302
		c0.157,0.138,0.316,0.276,0.474,0.415c3.627-7.265,9.196-11.447,17.484-11.527v14.071c-2.716,0.39-5.47,0.651-8.166,1.202
		c-5.156,1.053-9.041,5.258-9.272,10.523c-0.339,7.707-0.312,15.43-0.419,23.147C255.59,72.998,255.619,75.528,255.619,78.453"/>
	<path fill-rule="evenodd" clip-rule="evenodd" fill="#4D4D52" d="M32.803,125.651v-2.583c0.001-6.729,0.052-13.461-0.031-20.189
		c-0.022-1.762,0.372-2.479,2.311-2.358c3.908,0.243,3.609-0.736,3.613,3.64c0.016,17.324,0.016,34.648,0.016,51.971
		c0,0.659-0.069,1.319-0.114,2.111h-5.699v-5.835c-0.749,0.552-1.177,0.738-1.415,1.063c-2.241,3.053-5.456,4.837-8.952,5.495
		c-6.501,1.226-13.444-0.832-17.287-7.354c-3.281-5.566-3.354-11.621-2.297-17.748c1.012-5.873,4.054-10.41,9.381-13.271
		c6.832-3.674,15.413-2.074,19.669,4.121C32.126,124.903,32.295,125.064,32.803,125.651 M8.062,139.216
		c0.542,2.576,0.828,5.24,1.682,7.71c1.496,4.331,4.615,7.018,9.293,7.446c4.263,0.393,8.074-0.766,10.756-4.289
		c3.585-4.708,3.762-10.057,2.902-15.698c-0.907-5.957-4.553-10.37-11.068-10.612c-4.521-0.168-8.339,1.079-10.772,5.254
		C9.025,132.166,8.437,135.576,8.062,139.216"/>
	<path fill-rule="evenodd" clip-rule="evenodd" fill="#4D4D52" d="M231.679,204.841v-24.659c1.68,0,3.19-0.059,4.69,0.045
		c0.356,0.024,0.844,0.549,0.967,0.938c0.172,0.548,0.068,1.185,0.068,1.785c0.002,17.256,0.002,34.51,0.003,51.766
		c0,2.875,0.001,2.875-2.93,2.875h-2.69c-0.093-2.012-0.183-3.94-0.252-5.464c-2.34,1.626-4.552,3.637-7.136,4.871
		c-7.115,3.396-16.91,0.466-20.553-7.209c-3.732-7.861-3.539-15.833,0.805-23.437c5.104-8.937,17.494-10.774,24.134-4.711
		C229.699,202.477,230.458,203.481,231.679,204.841 M219.873,203.145c-6.993-0.528-11.433,5.021-11.839,10.546
		c-0.227,3.083-0.232,6.211,0.012,9.292c0.442,5.599,4.051,9.396,9.557,10.265c4.75,0.748,10.791-1.875,12.584-6.356
		c1.783-4.461,2.057-8.893,1.306-13.621C230.567,207.452,226.332,202.731,219.873,203.145"/>
	<path fill-rule="evenodd" clip-rule="evenodd" fill="#4D4D52" d="M83.083,147.466c-1.243,5.995-4.775,9.647-10.75,11.07
		c-6.333,1.51-12.286,0.898-17.479-3.205c-4.159-3.288-6.172-7.885-6.629-13.105c-0.597-6.824,0.454-13.168,5.493-18.377
		c3.719-3.846,8.375-5.49,13.453-5.169c6.651,0.42,11.818,3.635,14.492,10.043c1.508,3.612,1.914,7.418,1.485,11.566H54.295
		c0,8.97,4.939,14.874,13.852,14.113c2.877-0.246,5.695-0.773,7.51-3.423c0.074-0.106,0.25-0.175,0.273-0.284
		C76.82,146.367,80.06,147.226,83.083,147.466 M77.287,135.244c-0.909-8.184-4.021-11.485-11.277-11.51
		c-7.34-0.022-11.391,6.112-11.33,11.51H77.287z"/>
	<path fill-rule="evenodd" clip-rule="evenodd" fill="#4D4D52" d="M9.022,219.877c0.619,4.543,1.27,8.547,4.918,11.317
		c3.688,2.803,11.861,3.065,15.414,0.209c1.04-0.836,1.905-2.072,2.434-3.305c0.511-1.193,1.092-1.605,2.334-1.489
		c1.174,0.11,2.368,0.023,3.747,0.023c-0.559,4.635-3.033,7.705-6.825,9.553c-6.832,3.329-18.144,2.98-23.984-4.454
		c-2.715-3.456-3.945-7.345-4.133-11.705c-0.24-5.569,0.828-10.722,4.55-15.006c4.298-4.947,9.829-6.625,16.282-5.846
		c6.327,0.765,10.819,4.009,12.959,9.917c1.193,3.295,1.484,6.917,2.26,10.785H9.022z M9.69,214.777h22.376
		c0.057-5.838-3.33-11.021-10.673-11.039C14.914,203.722,9.472,208.616,9.69,214.777"/>
	<path fill-rule="evenodd" clip-rule="evenodd" fill="#4D4D52" d="M279.889,226.9c-0.57,6.521-7.446,10.952-12.864,11.046
		c-2.901,0.049-5.922,0.258-8.689-0.419c-6.611-1.618-10.881-5.904-12.567-12.612c-1.631-6.483-1.063-12.638,2.672-18.333
		c3.856-5.877,10.08-7.913,16.298-7.501c3.446,0.229,6.599,1.292,9.337,3.464c4.265,3.386,5.736,8.113,6.329,13.237
		c0.15,1.3,0.022,2.634,0.022,4.177h-29.052c-0.506,6.967,3.993,13.592,11.442,13.438c3.574-0.075,7.092-0.024,9.714-3.023
		c0.175-0.199,0.501-0.351,0.546-0.567C273.925,225.567,277.151,227.041,279.889,226.9 M274.139,214.928
		c-0.321-7.336-4.242-11.69-12.468-11.026c-5.255,0.423-9.941,5.322-10.168,11.122c7.046,0,14.089,0.001,21.13-0.004
		C273.087,215.02,273.541,214.966,274.139,214.928"/>
	<path fill-rule="evenodd" clip-rule="evenodd" fill="#4D4D52" d="M323.219,135.159c-0.271-2.165-0.371-4.616-0.926-6.961
		c-0.65-2.756-2.713-4.019-5.516-4.267c-2.743-0.242-5.396-0.355-7.873,1.223c-1.623,1.035-2.382,2.517-2.961,4.252
		c-0.184,0.556-0.919,1.23-1.471,1.301c-1.437,0.183-2.911,0.061-4.367,0.061c-0.067-4.552,2.936-9.021,7.644-10.803
		c4.595-1.741,9.384-2.021,14.007-0.065c4.928,2.086,6.869,6.33,6.973,11.333c0.182,8.856,0.063,17.719,0.061,26.577
		c0,0.117-0.102,0.232-0.21,0.462h-5.492c-0.065-1.314-0.132-2.652-0.204-4.093c-1.664,1.23-3.085,2.495-4.696,3.431
		c-4.628,2.691-13.271,2.264-17.091-1.803c-3.056-3.252-3.72-7.229-2.437-11.295c1.349-4.276,4.838-6.677,9.066-7.456
		C312.646,136.148,317.673,135.811,323.219,135.159 M323.336,139.951c-2.826,0-5.043-0.227-7.192,0.057
		c-2.798,0.368-5.629,0.889-8.285,1.809c-2.499,0.865-3.785,3.035-3.889,5.726c-0.101,2.594,0.438,5.218,3.05,6.172
		c2.093,0.765,4.564,0.931,6.813,0.733c3.766-0.33,7.22-1.797,8.346-5.822C322.927,145.95,322.948,143.071,323.336,139.951"/>
	<path fill-rule="evenodd" clip-rule="evenodd" fill="#4D4D52" d="M317.854,210.245h-5.46c-0.243-3.972,2.598-8.735,6.669-10.442
		c3.961-1.66,8.094-2.183,12.457-1.183c6.268,1.438,9.073,6.012,9.227,11.584c0.245,8.921,0.053,17.854,0.039,26.783
		c0,0.12-0.085,0.238-0.176,0.476h-5.613v-4.209c-1.987,1.382-3.705,2.978-5.73,3.902c-4.299,1.964-13.108,1.69-16.607-3.203
		c-3.283-4.594-3.136-12.541,3.139-16.012c4.417-2.443,9.228-2.681,14.064-2.897c1.647-0.074,3.301-0.011,4.927-0.011
		c0.852-7.457-0.975-11.164-5.082-11.714C323.986,202.553,319.587,202.916,317.854,210.245 M335.385,219.228
		c-3.602,0-6.621-0.313-9.539,0.099c-2.423,0.341-4.923,1.203-7.027,2.446c-2.232,1.318-2.93,3.755-2.51,6.414
		c0.41,2.6,1.627,4.729,4.313,5.028c2.581,0.288,5.299,0.156,7.852-0.337c2.491-0.479,4.847-1.912,5.531-4.549
		C334.75,225.452,334.926,222.427,335.385,219.228"/>
	<path fill-rule="evenodd" clip-rule="evenodd" fill="#4D4D52" d="M193.606,237.495h-5.409c-0.095-1.477-0.188-2.947-0.279-4.367
		c-2.008,1.409-3.75,3.131-5.844,4.003c-5.36,2.233-14.82,1.813-17.763-5.269c-2.213-5.328-0.93-10.985,4.517-14.026
		c4.34-2.423,9.111-2.558,13.87-2.791c1.71-0.083,3.429-0.012,5.106-0.012c0.989-6.012-1.154-10.841-5.099-11.789
		c-5.994-1.44-10.069,0.88-12.062,6.965h-5.463c-0.093-4.2,2.925-8.985,6.929-10.507c4.016-1.528,8.092-1.996,12.476-1.013
		c5.869,1.316,8.813,6.128,8.955,11.395C193.781,219.136,193.606,228.2,193.606,237.495 M187.914,219.189
		c-3.001,0-5.792-0.093-8.57,0.039c-1.435,0.067-2.868,0.467-4.27,0.836c-4.606,1.216-6.452,4.07-6.083,7.372
		c0.443,3.959,1.468,5.854,6.798,6.164c4.211,0.246,8.257-0.607,10.744-4.511C188.404,226.153,188.153,222.782,187.914,219.189"/>
	<path fill-rule="evenodd" clip-rule="evenodd" fill="#4D4D52" d="M416.491,159.224c-10.824,0.297-18.081-8.951-18.335-19.026
		c-0.178-7.021,1.687-13.153,7.395-17.579c4.438-3.439,9.468-4.709,15.117-3.537c5.755,1.193,9.991,4.308,12.858,9.351
		c1.957,3.444,2.472,7.259,2.429,11.134c-0.051,4.814-1.285,9.315-4.41,13.085C427.809,157.16,422.923,159.288,416.491,159.224
		 M404.019,138.95c0.421,2.329,0.615,4.729,1.309,6.977c1.588,5.139,5.249,8.026,10.582,8.472c4.75,0.397,8.823-1.211,11.349-5.417
		c3.363-5.6,3.304-11.553,1.208-17.602c-3.134-9.047-15.357-9.645-20.386-4.063C405.099,130.624,404.241,134.599,404.019,138.95"/>
	<path fill-rule="evenodd" clip-rule="evenodd" fill="#4D4D52" d="M235.544,159.203c-10.369,0.41-17.92-7.895-18.635-17.041
		c-0.394-5.017,0.113-9.703,2.454-14.252c3.345-6.497,12.603-10.37,19.439-8.993c9.809,1.975,15.527,9.865,15.623,19.671
		c0.069,7.117-2.14,13.203-8.087,17.413C243.109,158.289,239.376,159.488,235.544,159.203 M222.772,138.96
		c0,0.665-0.033,1.333,0.005,1.996c0.406,6.977,4.224,12.747,11.431,13.426c4.328,0.405,8.054-0.899,10.828-4.423
		c3.213-4.085,3.685-8.795,3.164-13.743c-0.66-6.282-4.422-12.181-11.941-12.442c-4.35-0.152-8.084,1.061-10.725,4.817
		C223.329,131.729,222.815,135.272,222.772,138.96"/>
	<path fill-rule="evenodd" clip-rule="evenodd" fill="#4D4D52" d="M46.07,199.06h5.591v5.743c0.943-1.066,1.541-1.715,2.106-2.389
		c4.964-5.916,18.311-6.159,21.747,2.068c0.827,1.979,1.582,4.159,1.635,6.265c0.214,8.525,0.143,17.056,0.171,25.584
		c0.002,0.592-0.05,1.184-0.084,1.953h-5.588c-0.054-0.789-0.155-1.619-0.158-2.448c-0.035-8.129-0.111-16.257-0.061-24.386
		c0.042-6.875-6.395-9.2-11.438-7.952c-6.093,1.506-8.237,5.695-8.248,11.453c-0.013,6.863-0.005,13.726-0.007,20.589v2.748H46.07
		V199.06z"/>
	<path fill-rule="evenodd" clip-rule="evenodd" fill="#4D4D52" d="M137.628,119.392v6.149c1.034-1.2,1.718-2.099,2.508-2.892
		c5.65-5.67,17.319-5.664,21.472,2.121c1.031,1.932,1.854,4.229,1.908,6.383c0.217,8.789,0.101,17.587,0.102,26.382
		c0,0.19-0.075,0.38-0.143,0.709h-5.691v-2.185c-0.004-7.662,0.021-15.325-0.018-22.987c-0.038-7.405-6.368-11.351-13.229-8.414
		c-4.79,2.049-6.952,5.625-6.934,10.724c0.024,6.996,0.004,13.992,0.003,20.988v1.887h-5.622c-0.043-0.772-0.117-1.487-0.117-2.203
		c-0.007-11.525,0.027-23.054-0.04-34.58c-0.01-1.672,0.486-2.287,2.151-2.105C135.085,119.489,136.217,119.392,137.628,119.392"/>
	<path fill-rule="evenodd" clip-rule="evenodd" fill="#4D4D52" d="M201.451,158.384c0-1.351,0.002-2.403,0-3.457
		c-0.021-7.728-0.001-15.452-0.082-23.179c-0.049-4.604-2.993-7.523-7.567-7.769c-4.658-0.249-8.648,1.025-10.842,5.416
		c-0.878,1.757-1.288,3.908-1.334,5.892c-0.159,6.858-0.064,13.72-0.066,20.58v2.348h-5.664v-38.794c1.565,0,3.08-0.091,4.573,0.061
		c0.4,0.04,0.995,0.788,1.037,1.253c0.133,1.487,0.049,2.995,0.228,4.561c2.512-3.641,5.867-5.761,10.117-6.427
		c8.177-1.281,14.854,3.571,15.281,11.847c0.446,8.638,0.209,17.31,0.313,25.966c0.015,1.271-0.372,1.824-1.715,1.724
		C204.413,158.308,203.082,158.384,201.451,158.384"/>
	<path fill-rule="evenodd" clip-rule="evenodd" fill="#4D4D52" d="M476.819,158.16c-0.138,0.067-0.193,0.115-0.255,0.122
		c-5.412,0.609-5.397,0.609-5.415-4.714c-0.023-7.063,0.063-14.132-0.146-21.189c-0.209-7.042-6.756-10.659-13.256-7.688
		c-4.555,2.083-6.532,5.596-6.556,10.401c-0.035,7.13-0.017,14.262-0.019,21.394v1.738h-5.672v-38.808
		c1.547,0,3.065-0.09,4.561,0.057c0.404,0.04,1.017,0.764,1.058,1.217c0.135,1.49,0.051,3,0.051,5.111
		c2.54-3.742,5.474-5.793,9.335-6.744c7.454-1.834,15.708,2.408,16.223,11.423c0.506,8.838,0.246,17.72,0.308,26.581
		C477.038,157.444,476.888,157.829,476.819,158.16"/>
	<path fill-rule="evenodd" clip-rule="evenodd" fill="#4D4D52" d="M373.139,132.34c-0.434,0.046-0.758,0.08-1.084,0.111
		c-2.618,0.253-4.723,0.289-5.761-3.135c-1.842-6.085-10.499-6.506-14.619-4.544c-4.857,2.312-6.896,6.483-7.453,11.548
		c-0.542,4.922-0.25,9.749,2.998,13.808c2.792,3.489,6.636,4.727,10.995,4.21c4.713-0.558,8.037-2.975,9.215-7.73
		c0.419-1.697,1.246-2.295,2.91-2.094c0.906,0.109,1.836,0.019,2.951,0.019c-0.251,5.296-2.691,9.105-6.758,11.866
		c-6.541,4.438-16.09,3.682-21.89-1.226c-3.961-3.351-6.114-7.765-6.435-12.953c-0.301-4.868-0.094-9.648,2.422-14.1
		c3.99-7.061,12.141-10.564,20.088-9.05C367.756,120.412,372.614,125.839,373.139,132.34"/>
	<path fill-rule="evenodd" clip-rule="evenodd" fill="#4D4D52" d="M258.524,119.405c1.843,0,3.378-0.103,4.886,0.057
		c0.531,0.054,1.264,0.65,1.451,1.164c2.033,5.586,3.986,11.201,5.943,16.813c1.685,4.832,3.347,9.674,5.019,14.511
		c0.181,0.021,0.362,0.042,0.544,0.062c0.563-1.479,1.172-2.943,1.684-4.44c2.729-7.996,5.433-16,8.144-24.003
		c0.043-0.124,0.062-0.257,0.106-0.382c1.5-4.148,1.842-4.322,7.327-3.592c-1.155,3.387-2.264,6.743-3.444,10.073
		c-1.876,5.289-3.819,10.553-5.697,15.842c-1.388,3.908-2.679,7.853-4.121,11.74c-0.186,0.501-1,1.04-1.559,1.082
		c-1.855,0.137-3.74,0.183-5.584-0.016c-0.636-0.066-1.49-0.844-1.721-1.483c-2.678-7.451-5.24-14.944-7.864-22.415
		c-1.574-4.483-3.206-8.945-4.797-13.423C258.694,120.582,258.664,120.126,258.524,119.405"/>
	<rect x="112.731" y="105.076" fill-rule="evenodd" clip-rule="evenodd" fill="#4D4D52" width="5.978" height="53.208"/>
	<path fill-rule="evenodd" clip-rule="evenodd" fill="#4D4D52" d="M293.935,238.345h-5.628v-39.281h5.576v6.277
		c1.927-1.807,3.506-3.791,5.535-5.047c2.005-1.239,4.467-1.743,7.059-2.69v6.011c-1.959,0.388-3.875,0.585-5.669,1.162
		c-5.054,1.625-6.731,5.634-6.812,10.479c-0.115,6.929-0.05,13.859-0.062,20.788C293.934,236.76,293.935,237.476,293.935,238.345"/>
	<path fill-rule="evenodd" clip-rule="evenodd" fill="#4D4D52" d="M388.283,158.085c-0.131,0.114-0.176,0.19-0.23,0.196
		c-5.383,0.674-5.383,0.674-5.383-4.666c0-10.646,0.047-21.294-0.043-31.938c-0.016-1.881,0.549-2.518,2.367-2.303
		c1.037,0.121,2.102,0.021,3.289,0.021V158.085z"/>
	<path fill-rule="evenodd" clip-rule="evenodd" fill="#4D4D52" d="M414.495,112.454c1.389-3.408,2.721-6.746,4.14-10.046
		c0.145-0.336,0.804-0.619,1.235-0.634c1.92-0.068,3.844-0.029,6.197-0.029c-1.234,1.862-2.295,3.489-3.386,5.097
		c-0.703,1.035-1.623,1.961-2.143,3.077C419.339,112.495,417.461,113.329,414.495,112.454"/>
	<path fill-rule="evenodd" clip-rule="evenodd" fill="#4D4D52" d="M385.624,110.797c-2.405,0.009-3.839-1.402-3.837-3.774
		c0.001-2.268,1.572-4.002,3.693-4.075c2.008-0.068,4.08,2.007,4.064,4.073C389.529,109.194,387.874,110.79,385.624,110.797"/>
</g>
</svg>
