<svg xmlns="http://www.w3.org/2000/svg" width="348.1" viewBox="0 0 348.095 46.536" enable-background="new 0 0 348.095 46.536"><g fill="#fff"><path d="m2.557 7.13c0-3.565 0-4.222-.047-4.972-.047-.798-.235-1.173-1.01-1.337-.188-.047-.586-.071-.915-.071-.258 0-.398-.047-.398-.211s.164-.211.517-.211c1.242 0 2.72.071 3.377.071.961 0 2.321-.071 3.4-.071 2.932 0 3.987.985 4.362 1.337.516.493 1.173 1.548 1.173 2.791 0 3.33-2.439 5.676-5.77 5.676-.117 0-.375 0-.492-.023-.117-.024-.282-.047-.282-.211 0-.188.165-.258.657-.258 1.313 0 3.143-1.478 3.143-3.87 0-.774-.07-2.345-1.384-3.518-.845-.774-1.806-.915-2.346-.915-.352 0-.703.023-.914.094-.117.047-.188.187-.188.445v9.381c0 2.158 0 4.01.117 5.02.07.657.211 1.172.914 1.266.329.047.845.094 1.196.094.258 0 .375.07.375.188 0 .164-.188.234-.445.234-1.548 0-3.03-.07-3.635-.07-.54 0-2.02.07-2.955.07-.305 0-.47-.07-.47-.234 0-.117.095-.188.376-.188.352 0 .633-.047.844-.094.47-.094.587-.609.681-1.29.117-.985.117-2.838.117-4.996v-4.126z"/><path d="m15.364 9.193c0-4.01 2.65-9.193 9.687-9.193 5.839 0 9.475 3.401 9.475 8.771s-3.753 9.616-9.71 9.616c-6.731 0-9.452-5.04-9.452-9.194m15.878.446c0-5.253-3.02-8.513-6.872-8.513-2.697 0-5.77 1.501-5.77 7.34 0 4.878 2.697 8.748 7.2 8.748 1.642 0 5.442-.797 5.442-7.575"/><path d="m40.744 14.869c.047 1.829.352 2.439.82 2.603.398.141.845.165 1.22.165.258 0 .398.047.398.188 0 .188-.211.234-.539.234-1.524 0-2.463-.07-2.908-.07-.211 0-1.313.07-2.533.07-.305 0-.516-.023-.516-.234 0-.141.141-.188.375-.188.305 0 .728-.023 1.056-.118.609-.188.703-.868.727-2.908l.212-13.814c0-.469.07-.797.304-.797.258 0 .469.305.867.727.282.305 3.847 4.057 7.271 7.458 1.595 1.595 4.761 4.972 5.16 5.347h.117l-.234-10.53c-.023-1.431-.235-1.876-.798-2.111-.351-.141-.915-.141-1.243-.141-.281 0-.375-.07-.375-.211 0-.188.258-.211.609-.211 1.22 0 2.346.071 2.838.071.258 0 1.149-.071 2.299-.071.305 0 .539.023.539.211 0 .141-.141.211-.422.211-.234 0-.422 0-.704.07-.656.188-.844.68-.867 1.994l-.258 14.799c0 .516-.094.727-.306.727-.258 0-.539-.258-.797-.516-1.478-1.407-4.479-4.479-6.919-6.895-2.556-2.533-5.159-5.395-5.581-5.84h-.07l.258 9.78"/><path d="m64.764 1.642l-3.494.093c-1.36.047-1.924.165-2.275.68-.234.352-.352.633-.398.821-.047.188-.117.282-.258.282-.165 0-.212-.117-.212-.375 0-.375.446-2.509.493-2.697.069-.305.14-.446.28-.446.188 0 .422.234 1.01.281.68.07 1.571.118 2.345.118h9.287c.751 0 1.267-.071 1.618-.118.352-.07.54-.117.634-.117.164 0 .188.141.188.493 0 .493-.07 2.111-.07 2.721-.023.234-.07.375-.211.375-.188 0-.235-.117-.259-.469l-.023-.258c-.047-.61-.68-1.267-2.767-1.313l-2.955-.07v9.616c0 2.158 0 4.01.117 5.02.07.657.211 1.172.915 1.266.328.047.844.094 1.195.094.258 0 .376.07.376.188 0 .164-.188.234-.446.234-1.548 0-3.03-.07-3.682-.07-.54 0-2.02.07-2.955.07-.305 0-.469-.07-.469-.234 0-.117.094-.188.375-.188.352 0 .633-.047.844-.094.47-.094.61-.609.681-1.29.117-.985.117-2.838.117-4.996v-9.616"/><path d="m78.3 7.13c0-3.565 0-4.222-.047-4.972-.048-.797-.282-1.196-.798-1.313-.258-.07-.562-.094-.845-.094-.234 0-.375-.047-.375-.234 0-.141.188-.188.563-.188.891 0 2.368.071 3.049.071.586 0 1.97-.071 2.861-.071.305 0 .492.047.492.188 0 .188-.141.234-.375.234-.235 0-.423.023-.704.07-.633.117-.82.516-.867 1.337-.048.75-.048 1.407-.048 4.972v4.127c0 2.275 0 4.128.095 5.136.07.633.234 1.055.938 1.149.328.047.845.094 1.196.094.258 0 .375.07.375.188 0 .164-.188.234-.445.234-1.548 0-3.03-.07-3.658-.07-.54 0-2.02.07-2.955.07-.306 0-.47-.07-.47-.234 0-.117.094-.188.375-.188.353 0 .634-.047.845-.094.469-.094.609-.492.68-1.172.118-.985.118-2.838.118-5.113v-4.127"/><path d="m91.86 11.257c0 2.251 0 4.01.117 4.996.07.68.211 1.196.914 1.29.328.047.845.094 1.173.094.305 0 .398.07.398.188 0 .164-.164.234-.516.234-1.478 0-2.955-.07-3.564-.07-.61 0-2.088.07-2.979.07-.329 0-.493-.047-.493-.234 0-.117.094-.188.352-.188.353 0 .634-.047.845-.094.469-.094.586-.609.68-1.29.118-.985.118-2.744.118-4.996v-4.127c0-3.565 0-4.222-.047-4.972-.047-.797-.235-1.173-1.01-1.337-.188-.047-.587-.07-.915-.07-.234 0-.398-.047-.398-.188 0-.188.188-.235.539-.235.61 0 1.29.023 1.9.023.609.024 1.148.047 1.478.047.891 0 5.651 0 6.191-.023.445-.024.727-.024.961-.094.141-.047.259-.141.376-.141.094 0 .164.094.164.211 0 .165-.117.446-.188 1.056-.023.234-.07 1.618-.117 1.899-.023.188-.071.329-.235.329s-.211-.117-.234-.375c0-.188 0-.562-.141-.891-.164-.328-.656-.68-1.548-.704l-3.611-.07c-.141 0-.211.07-.211.329v5.863c0 .141.023.211.164.211l3-.023c.398 0 .727 0 1.055-.023.446-.023.774-.118 1.01-.422.117-.141.164-.234.305-.234.094 0 .141.07.141.211s-.117.727-.188 1.454c-.047.469-.094 1.548-.094 1.712 0 .211 0 .446-.234.446-.141 0-.188-.164-.188-.329 0-.164-.047-.445-.141-.727-.117-.328-.47-.75-1.196-.844-.586-.07-3.072-.07-3.471-.07-.117 0-.164.047-.164.211v1.897"/><path d="m103.49 7.13c0-3.565 0-4.222-.047-4.972-.047-.797-.282-1.196-.798-1.313-.258-.07-.562-.094-.845-.094-.234 0-.375-.047-.375-.234 0-.141.188-.188.563-.188.891 0 2.368.071 3.049.071.586 0 1.97-.071 2.86-.071.306 0 .493.047.493.188 0 .188-.141.234-.375.234-.235 0-.423.023-.704.07-.633.117-.82.516-.867 1.337-.047.75-.047 1.407-.047 4.972v4.127c0 2.275 0 4.128.094 5.136.07.633.234 1.055.938 1.149.328.047.845.094 1.196.094.258 0 .375.07.375.188 0 .164-.188.234-.445.234-1.548 0-3.03-.07-3.659-.07-.539 0-2.02.07-2.954.07-.306 0-.47-.07-.47-.234 0-.117.094-.188.375-.188.353 0 .634-.047.845-.094.469-.094.609-.492.68-1.172.118-.985.118-2.838.118-5.113v-4.127"/><path d="m114.21 15.831c-2.299-2.02-2.908-4.644-2.908-6.918 0-1.595.492-4.362 2.744-6.426 1.688-1.549 3.916-2.487 7.411-2.487 1.454 0 2.321.094 3.4.234.891.117 1.642.329 2.345.399.259.023.353.141.353.281 0 .188-.07.469-.117 1.29-.047.774-.023 2.064-.07 2.533-.023.352-.07.54-.282.54-.188 0-.234-.188-.234-.516-.023-.727-.328-1.548-.914-2.157-.774-.821-2.604-1.454-4.762-1.454-2.04 0-3.377.516-4.409 1.454-1.712 1.571-2.157 3.799-2.157 6.074 0 5.582 4.245 8.349 7.388 8.349 2.087 0 3.354-.235 4.292-1.313.398-.446.703-1.126.797-1.548.07-.375.117-.469.306-.469.164 0 .211.164.211.352 0 .281-.281 2.322-.517 3.119-.117.398-.211.516-.609.68-.938.375-2.721.54-4.222.54-3.215-.001-5.912-.704-8.05-2.557"/><path d="m132.63 7.13c0-3.565 0-4.222-.047-4.972-.048-.797-.282-1.196-.798-1.313-.258-.07-.562-.094-.845-.094-.234 0-.375-.047-.375-.234 0-.141.188-.188.563-.188.891 0 2.368.071 3.049.071.586 0 1.97-.071 2.861-.071.305 0 .492.047.492.188 0 .188-.141.234-.375.234-.235 0-.423.023-.704.07-.633.117-.82.516-.867 1.337-.048.75-.048 1.407-.048 4.972v4.127c0 2.275 0 4.128.095 5.136.07.633.234 1.055.938 1.149.328.047.845.094 1.196.094.258 0 .375.07.375.188 0 .164-.188.234-.445.234-1.548 0-3.03-.07-3.658-.07-.54 0-2.02.07-2.955.07-.306 0-.47-.07-.47-.234 0-.117.094-.188.375-.188.353 0 .634-.047.845-.094.469-.094.609-.492.68-1.172.118-.985.118-2.838.118-5.113v-4.127"/><path d="m144.16 12.08c-.117 0-.164.047-.211.188l-1.267 3.213c-.234.586-.352 1.149-.352 1.431 0 .422.211.727.938.727h.352c.281 0 .352.047.352.188 0 .188-.141.234-.398.234-.751 0-1.759-.07-2.486-.07-.258 0-1.548.07-2.768.07-.305 0-.445-.047-.445-.234 0-.141.094-.188.281-.188.211 0 .54-.023.728-.047 1.078-.141 1.524-.938 1.993-2.11l5.887-14.541c.281-.681.421-.939.656-.939.211 0 .353.211.587.75.562 1.29 4.315 10.671 5.816 14.236.891 2.111 1.571 2.439 2.063 2.556.352.071.703.094.985.094.188 0 .305.023.305.188 0 .188-.211.234-1.079.234-.844 0-2.557 0-4.433-.047-.422-.023-.703-.023-.703-.188 0-.141.094-.188.328-.211.164-.047.328-.258.211-.54l-1.876-4.832c-.047-.117-.117-.164-.234-.164h-5.23zm4.784-1.172c.117 0 .141-.071.117-.141l-2.11-5.769c-.023-.094-.047-.211-.117-.211s-.117.118-.141.211l-2.158 5.746c-.023.094 0 .165.094.165h4.315"/><path d="m165.68 7.13c0-3.565 0-4.222-.047-4.972-.047-.797-.234-1.173-1.01-1.337-.188-.047-.586-.07-.914-.07-.259 0-.399-.047-.399-.211s.164-.211.517-.211c1.242 0 2.72.071 3.424.071.562 0 2.04-.071 2.885-.071.352 0 .516.047.516.211s-.141.211-.375.211c-.258 0-.398.023-.681.07-.633.117-.82.516-.867 1.337-.047.75-.047 1.407-.047 4.972v3.283c0 3.4.68 4.831 1.829 5.77 1.056.868 2.135.961 2.932.961 1.032 0 2.299-.329 3.236-1.267 1.29-1.29 1.36-3.4 1.36-5.816v-2.931c0-3.565 0-4.222-.047-4.972-.047-.797-.234-1.173-1.01-1.337-.188-.047-.586-.07-.844-.07s-.398-.047-.398-.211.164-.211.492-.211c1.196 0 2.674.071 2.697.071.281 0 1.759-.071 2.673-.071.329 0 .493.047.493.211s-.141.211-.422.211c-.259 0-.399.023-.681.07-.633.117-.82.516-.867 1.337-.048.75-.048 1.407-.048 4.972v2.509c0 2.603-.258 5.371-2.228 7.06-1.665 1.431-3.354 1.689-4.878 1.689-1.243 0-3.495-.071-5.207-1.619-1.196-1.079-2.087-2.814-2.087-6.215v-3.423"/><path d="m187.98 14.869c.047 1.829.353 2.439.821 2.603.398.141.845.165 1.22.165.258 0 .398.047.398.188 0 .188-.211.234-.539.234-1.524 0-2.463-.07-2.908-.07-.211 0-1.313.07-2.533.07-.305 0-.516-.023-.516-.234 0-.141.141-.188.375-.188.305 0 .727-.023 1.056-.118.609-.188.703-.868.727-2.908l.211-13.814c0-.469.07-.797.306-.797.258 0 .469.305.867.727.281.305 3.847 4.057 7.271 7.458 1.595 1.595 4.761 4.972 5.159 5.347h.117l-.234-10.53c-.023-1.431-.234-1.876-.797-2.111-.352-.141-.915-.141-1.243-.141-.281 0-.375-.07-.375-.211 0-.188.258-.211.609-.211 1.22 0 2.346.071 2.838.071.258 0 1.149-.071 2.299-.071.305 0 .539.023.539.211 0 .141-.141.211-.422.211-.235 0-.423 0-.704.07-.656.188-.844.68-.867 1.994l-.259 14.799c0 .516-.094.727-.305.727-.258 0-.539-.258-.797-.516-1.478-1.407-4.479-4.479-6.919-6.895-2.557-2.533-5.159-5.395-5.582-5.84h-.07l.257 9.78"/><path d="m208.88 7.13c0-3.565 0-4.222-.047-4.972-.048-.797-.282-1.196-.798-1.313-.258-.07-.562-.094-.845-.094-.234 0-.375-.047-.375-.234 0-.141.188-.188.563-.188.891 0 2.368.071 3.049.071.586 0 1.97-.071 2.861-.071.305 0 .492.047.492.188 0 .188-.141.234-.375.234-.235 0-.423.023-.704.07-.633.117-.82.516-.867 1.337-.048.75-.048 1.407-.048 4.972v4.127c0 2.275 0 4.128.095 5.136.07.633.234 1.055.938 1.149.328.047.845.094 1.196.094.258 0 .375.07.375.188 0 .164-.188.234-.445.234-1.548 0-3.03-.07-3.658-.07-.54 0-2.02.07-2.955.07-.306 0-.47-.07-.47-.234 0-.117.094-.188.375-.188.353 0 .634-.047.845-.094.469-.094.609-.492.68-1.172.118-.985.118-2.838.118-5.113v-4.127"/><path d="m217.33 2.627c-.539-1.29-.938-1.548-1.782-1.783-.352-.094-.728-.094-.915-.094-.211 0-.281-.07-.281-.211 0-.188.258-.211.61-.211 1.242 0 2.579.071 3.4.071.586 0 1.712-.071 2.885-.071.281 0 .539.047.539.211s-.141.211-.352.211c-.375 0-.728.023-.915.164-.164.117-.234.282-.234.493 0 .305.211.961.539 1.806l4.03 10.647h.094c1.01-2.58 4.058-10.131 4.62-11.679.117-.305.211-.657.211-.868 0-.188-.094-.375-.305-.446-.281-.094-.633-.117-.938-.117-.212 0-.399-.023-.399-.188 0-.188.211-.235.657-.235 1.173 0 2.157.071 2.462.071.399 0 1.501-.071 2.205-.071.305 0 .492.047.492.211s-.141.211-.375.211-.728 0-1.149.281c-.305.211-.656.61-1.29 2.111-.914 2.205-1.548 3.471-2.814 6.356-1.501 3.424-2.603 5.98-3.119 7.153-.609 1.36-.75 1.736-1.078 1.736-.306 0-.446-.329-.892-1.431l-5.91-14.328"/><path d="m236.47 7.13c0-3.565 0-4.222-.047-4.972-.047-.797-.235-1.173-1.01-1.337-.188-.047-.587-.07-.915-.07-.258 0-.398-.047-.398-.211s.164-.211.516-.211c.634 0 1.313.023 1.9.023.609.024 1.148.047 1.478.047.75 0 5.417 0 5.862-.023.446-.047.821-.094 1.01-.141.117-.023.258-.094.375-.094s.142.094.142.211c0 .165-.118.446-.188 1.525-.023.234-.07 1.266-.117 1.548-.023.117-.07.258-.234.258s-.211-.117-.211-.329c0-.164-.023-.562-.141-.844-.164-.422-.398-.704-1.571-.844-.398-.047-2.861-.094-3.33-.094-.117 0-.164.07-.164.234v5.934c0 .165.023.258.164.258.516 0 3.213 0 3.752-.047.563-.047.915-.118 1.126-.352.164-.188.258-.305.375-.305.094 0 .164.047.164.188s-.094.516-.188 1.712c-.023.469-.094 1.407-.094 1.571 0 .188 0 .446-.211.446-.164 0-.211-.094-.211-.211-.023-.235-.023-.54-.094-.844-.117-.469-.446-.821-1.313-.915-.445-.047-2.768-.07-3.33-.07-.117 0-.141.094-.141.235v1.853c0 .797-.023 2.955 0 3.635.047 1.618.422 1.97 2.813 1.97.61 0 1.595 0 2.205-.281.609-.281.891-.774 1.056-1.735.047-.258.094-.352.258-.352.188 0 .188.188.188.422 0 .54-.188 2.134-.305 2.603-.164.61-.376.61-1.267.61-1.759 0-3.049-.047-4.058-.07-1.01-.047-1.735-.07-2.439-.07-.258 0-.773 0-1.336.023-.54 0-1.149.047-1.618.047-.306 0-.47-.07-.47-.234 0-.117.094-.188.375-.188.353 0 .634-.047.845-.094.469-.094.586-.609.68-1.29.118-.985.118-2.838.118-4.996v-4.129z"/><path d="m251.29 7.13c0-3.565 0-4.222-.047-4.972-.047-.797-.235-1.173-1.01-1.337-.188-.047-.587-.07-.915-.07-.258 0-.398-.047-.398-.211s.164-.211.516-.211c1.243 0 2.721.071 3.213.071.798 0 2.58-.071 3.308-.071 1.478 0 3.049.141 4.315 1.01.656.445 1.595 1.642 1.595 3.213 0 1.735-.728 3.331-3.096 5.253 2.087 2.627 3.705 4.714 5.089 6.168 1.313 1.36 2.274 1.524 2.627 1.595.258.047.469.071.656.071s.281.07.281.188c0 .188-.164.234-.445.234h-2.228c-1.313 0-1.9-.117-2.51-.445-1.01-.54-1.899-1.642-3.213-3.448-.938-1.29-2.02-2.885-2.322-3.236-.117-.141-.258-.165-.422-.165l-2.04-.047c-.118 0-.188.047-.188.188v.328c0 2.181 0 4.03.117 5.02.071.68.212 1.196.915 1.29.352.047.868.094 1.149.094.188 0 .281.07.281.188 0 .164-.164.234-.469.234-1.36 0-3.096-.07-3.448-.07-.445 0-1.923.07-2.86.07-.306 0-.47-.07-.47-.234 0-.117.094-.188.375-.188.353 0 .634-.047.845-.094.469-.094.586-.609.68-1.29.118-.985.118-2.838.118-4.996v-4.128m2.767 1.852c0 .258.047.352.212.422.492.164 1.195.234 1.782.234.938 0 1.243-.094 1.665-.399.703-.516 1.384-1.595 1.384-3.518 0-3.331-2.205-4.292-3.589-4.292-.586 0-1.01.023-1.242.094-.165.047-.212.141-.212.328v7.131"/><path d="m267.36 17.777c-.376-.164-.446-.282-.446-.797 0-1.29.094-2.697.117-3.072.024-.352.095-.61.282-.61.211 0 .234.211.234.398 0 .305.094.797.211 1.196.516 1.735 1.899 2.369 3.354 2.369 2.111 0 3.143-1.431 3.143-2.674 0-1.149-.352-2.228-2.298-3.752l-1.079-.844c-2.58-2.02-3.471-3.659-3.471-5.558 0-2.58 2.157-4.433 5.417-4.433 1.524 0 2.51.234 3.119.399.212.047.329.117.329.281 0 .305-.094.985-.094 2.814 0 .516-.07.704-.259.704-.164 0-.234-.141-.234-.422 0-.211-.117-.938-.609-1.548-.352-.446-1.032-1.149-2.557-1.149-1.735 0-2.791 1.01-2.791 2.416 0 1.079.54 1.899 2.486 3.377l.656.493c2.838 2.134 3.847 3.752 3.847 5.98 0 1.36-.516 2.979-2.205 4.081-1.172.75-2.485.962-3.729.962-1.359-.001-2.415-.165-3.423-.611"/><path d="m282.3 7.13c0-3.565 0-4.222-.047-4.972-.047-.797-.282-1.196-.798-1.313-.258-.07-.562-.094-.845-.094-.234 0-.375-.047-.375-.234 0-.141.188-.188.563-.188.891 0 2.368.071 3.049.071.586 0 1.97-.071 2.86-.071.306 0 .493.047.493.188 0 .188-.141.234-.375.234-.235 0-.423.023-.704.07-.633.117-.82.516-.867 1.337-.047.75-.047 1.407-.047 4.972v4.127c0 2.275 0 4.128.094 5.136.07.633.234 1.055.938 1.149.328.047.845.094 1.196.094.258 0 .375.07.375.188 0 .164-.188.234-.445.234-1.548 0-3.02-.07-3.659-.07-.539 0-2.02.07-2.954.07-.306 0-.47-.07-.47-.234 0-.117.094-.188.375-.188.353 0 .634-.047.845-.094.469-.094.609-.492.68-1.172.118-.985.118-2.838.118-5.113v-4.127"/><path d="m292.9 7.13c0-3.565 0-4.222-.047-4.972-.048-.797-.235-1.173-1.01-1.337-.188-.047-.587-.07-.915-.07-.258 0-.398-.047-.398-.211s.164-.211.516-.211c1.243 0 2.721.071 3.378.071.727 0 2.204-.071 3.611-.071 2.932 0 6.849 0 9.404 2.674 1.173 1.22 2.275 3.166 2.275 5.957 0 2.955-1.243 5.207-2.557 6.543-1.079 1.102-3.518 2.767-7.856 2.767-.845 0-1.806-.07-2.697-.141s-1.712-.141-2.298-.141c-.259 0-.774 0-1.337.023-.54 0-1.149.047-1.618.047-.306 0-.47-.07-.47-.234 0-.117.094-.188.375-.188.353 0 .634-.047.845-.094.469-.094.586-.609.68-1.29.118-.985.118-2.838.118-4.996v-4.126m2.932 2.579c0 2.486.023 4.292.047 4.737.023.586.07 1.524.258 1.783.305.445 1.22.938 3.072.938 2.392 0 3.986-.469 5.394-1.688 1.501-1.29 1.971-3.424 1.971-5.84 0-2.979-1.243-4.902-2.252-5.863-2.157-2.064-4.831-2.345-6.66-2.345-.47 0-1.337.07-1.524.164-.211.094-.281.211-.281.469-.023.797-.023 2.838-.023 4.69v2.955z"/><path d="m315.8 12.08c-.117 0-.164.047-.211.188l-1.267 3.213c-.234.586-.352 1.149-.352 1.431 0 .422.211.727.938.727h.352c.281 0 .352.047.352.188 0 .188-.141.234-.398.234-.751 0-1.759-.07-2.486-.07-.258 0-1.548.07-2.768.07-.305 0-.445-.047-.445-.234 0-.141.094-.188.281-.188.211 0 .54-.023.728-.047 1.078-.141 1.524-.938 1.993-2.11l5.887-14.541c.281-.681.421-.939.656-.939.211 0 .353.211.587.75.562 1.29 4.315 10.671 5.816 14.236.891 2.111 1.571 2.439 2.063 2.556.352.071.703.094.985.094.188 0 .305.023.305.188 0 .188-.211.234-1.079.234-.844 0-2.557 0-4.433-.047-.422-.023-.703-.023-.703-.188 0-.141.094-.188.328-.211.164-.047.328-.258.211-.54l-1.876-4.832c-.047-.117-.117-.164-.234-.164h-5.23zm4.784-1.172c.117 0 .141-.071.117-.141l-2.11-5.769c-.023-.094-.047-.211-.117-.211s-.117.118-.141.211l-2.158 5.746c-.023.094 0 .165.094.165h4.315"/><path d="m331.28 7.13c0-3.565 0-4.222-.047-4.972-.048-.797-.235-1.173-1.01-1.337-.188-.047-.587-.07-.915-.07-.258 0-.398-.047-.398-.211s.164-.211.516-.211c1.243 0 2.721.071 3.378.071.727 0 2.204-.071 3.611-.071 2.932 0 6.849 0 9.404 2.674 1.173 1.22 2.275 3.166 2.275 5.957 0 2.955-1.243 5.207-2.557 6.543-1.079 1.102-3.518 2.767-7.856 2.767-.845 0-1.806-.07-2.697-.141s-1.712-.141-2.298-.141c-.259 0-.774 0-1.337.023-.54 0-1.149.047-1.618.047-.306 0-.47-.07-.47-.234 0-.117.094-.188.375-.188.353 0 .634-.047.845-.094.469-.094.586-.609.68-1.29.118-.985.118-2.838.118-4.996v-4.126m2.932 2.579c0 2.486.023 4.292.047 4.737.023.586.07 1.524.258 1.783.305.445 1.22.938 3.072.938 2.392 0 3.986-.469 5.394-1.688 1.501-1.29 1.971-3.424 1.971-5.84 0-2.979-1.243-4.902-2.252-5.863-2.157-2.064-4.831-2.345-6.66-2.345-.47 0-1.337.07-1.524.164-.211.094-.281.211-.281.469-.023.797-.023 2.838-.023 4.69v2.955z"/><path d="m2.908 43.979c-2.298-2.02-2.908-4.644-2.908-6.918 0-1.595.492-4.362 2.744-6.426 1.688-1.548 3.917-2.486 7.411-2.486 1.454 0 2.321.094 3.4.234.892.117 1.642.329 2.346.399.258.023.352.141.352.281 0 .188-.07.469-.117 1.29-.047.774-.023 2.064-.07 2.533-.023.352-.07.54-.281.54-.188 0-.235-.188-.235-.516-.023-.727-.328-1.548-.914-2.157-.774-.821-2.604-1.454-4.761-1.454-2.041 0-3.378.516-4.409 1.454-1.712 1.571-2.158 3.799-2.158 6.074 0 5.581 4.245 8.349 7.388 8.349 2.088 0 3.354-.234 4.292-1.312.398-.446.704-1.127.798-1.549.07-.375.117-.469.305-.469.164 0 .211.164.211.352 0 .281-.281 2.322-.516 3.119-.117.398-.212.517-.61.681-.938.375-2.721.54-4.222.54-3.215-.002-5.912-.706-8.05-2.559"/><path d="m22.963 40.23c-.117 0-.164.047-.211.188l-1.267 3.214c-.234.586-.352 1.148-.352 1.43 0 .422.211.728.938.728h.352c.281 0 .352.047.352.188 0 .188-.141.234-.398.234-.75 0-1.759-.07-2.486-.07-.258 0-1.548.07-2.767.07-.306 0-.446-.047-.446-.234 0-.141.094-.188.281-.188.212 0 .54-.023.728-.048 1.079-.141 1.524-.938 1.993-2.109l5.887-14.542c.281-.68.422-.938.657-.938.211 0 .352.211.586.75.562 1.29 4.315 10.671 5.816 14.236.891 2.11 1.571 2.438 2.063 2.556.352.071.704.095.985.095.188 0 .305.023.305.188 0 .188-.211.234-1.079.234-.844 0-2.556 0-4.433-.047-.422-.023-.703-.023-.703-.188 0-.141.094-.188.328-.211.164-.048.328-.259.211-.54l-1.876-4.831c-.047-.117-.117-.164-.234-.164h-5.23m4.785-1.174c.117 0 .141-.071.117-.141l-2.111-5.769c-.023-.094-.047-.211-.117-.211s-.117.118-.141.211l-2.157 5.746c-.023.094 0 .165.094.165h4.315z"/><path d="m40.04 29.79l-3.494.094c-1.36.047-1.924.165-2.275.68-.234.352-.352.633-.398.821-.047.188-.117.282-.258.282-.165 0-.212-.117-.212-.375 0-.375.446-2.509.493-2.697.07-.305.141-.446.281-.446.188 0 .422.234 1.01.281.68.07 1.571.118 2.345.118h9.287c.751 0 1.267-.071 1.618-.118.353-.07.54-.117.634-.117.164 0 .188.141.188.493 0 .493-.07 2.111-.07 2.721-.023.234-.07.375-.211.375-.188 0-.234-.117-.258-.469l-.023-.258c-.047-.61-.681-1.267-2.768-1.313l-2.955-.07v9.616c0 2.158 0 4.01.117 5.02.07.656.211 1.172.915 1.266.328.047.844.095 1.195.095.258 0 .376.07.376.188 0 .164-.188.234-.446.234-1.548 0-3.02-.07-3.682-.07-.54 0-2.02.07-2.955.07-.305 0-.469-.07-.469-.234 0-.117.094-.188.375-.188.352 0 .633-.048.844-.095.47-.094.61-.609.681-1.289.117-.985.117-2.838.117-4.996v-9.618"/><path d="m50.715 37.34c0-4.01 2.649-9.193 9.686-9.193 5.84 0 9.475 3.401 9.475 8.771 0 5.37-3.752 9.616-9.709 9.616-6.732 0-9.452-5.04-9.452-9.194m15.877.446c0-5.253-3.02-8.513-6.871-8.513-2.697 0-5.77 1.501-5.77 7.34 0 4.878 2.697 8.748 7.2 8.748 1.642-.001 5.441-.798 5.441-7.575m-2.415-13.04c.141.281 0 .352-.118.352-.117 0-.328-.047-.797 0-1.29.164-3.143.915-4.01 1.384-.188.094-.352.188-.398.188s-.141-.047-.141-.141.094-.188.211-.305c.938-.891 3.4-2.72 3.776-2.955.234-.165.398-.211.469-.211.164 0 .211.07.328.282.188.327.399.773.681 1.406"/><path d="m77.71 39.41c0 3 0 4.621.492 5.04.399.352 1.01.516 2.838.516 1.243 0 2.158-.023 2.744-.656.281-.305.562-.962.609-1.407.023-.212.071-.353.259-.353.164 0 .188.117.188.399 0 .258-.164 2.02-.352 2.696-.142.517-.259.634-1.478.634-1.689 0-2.908-.047-3.964-.07-1.056-.047-1.899-.07-2.861-.07-.258 0-.774 0-1.337.023-.539 0-1.149.047-1.618.047-.305 0-.469-.07-.469-.234 0-.117.094-.188.375-.188.352 0 .633-.048.845-.095.469-.094.586-.609.68-1.289.117-.985.117-2.838.117-4.996v-4.127c0-3.565 0-4.222-.047-4.972-.047-.797-.234-1.173-1.01-1.337-.188-.047-.469-.07-.773-.07-.258 0-.398-.047-.398-.211s.164-.211.516-.211c1.103 0 2.58.071 3.213.071.562 0 2.275-.071 3.189-.071.328 0 .493.047.493.211s-.142.211-.423.211c-.258 0-.633.023-.914.07-.634.117-.821.516-.868 1.337-.047.75-.047 1.407-.047 4.972v4.128"/><path d="m88.972 35.28c0-3.565 0-4.222-.047-4.972-.047-.797-.282-1.196-.798-1.313-.258-.07-.562-.094-.845-.094-.234 0-.375-.047-.375-.234 0-.141.188-.188.563-.188.891 0 2.368.071 3.049.071.586 0 1.97-.071 2.86-.071.306 0 .493.047.493.188 0 .188-.141.234-.375.234-.235 0-.423.023-.704.07-.633.117-.82.516-.867 1.337-.047.75-.047 1.407-.047 4.972v4.127c0 2.275 0 4.128.094 5.136.07.633.234 1.055.938 1.148.328.047.845.095 1.196.095.258 0 .375.07.375.188 0 .164-.188.234-.445.234-1.548 0-3.03-.07-3.659-.07-.539 0-2.02.07-2.954.07-.306 0-.47-.07-.47-.234 0-.117.094-.188.375-.188.353 0 .634-.048.845-.095.469-.094.609-.492.68-1.172.118-.984.118-2.838.118-5.113v-4.126"/><path d="m99.69 43.979c-2.299-2.02-2.908-4.644-2.908-6.919 0-1.595.492-4.362 2.744-6.426 1.688-1.548 3.916-2.486 7.411-2.486 1.454 0 2.321.094 3.4.234.891.117 1.642.329 2.345.399.259.023.353.141.353.281 0 .188-.07.469-.117 1.29-.047.774-.023 2.064-.07 2.533-.023.352-.07.54-.282.54-.188 0-.234-.188-.234-.516-.023-.727-.328-1.548-.914-2.157-.774-.821-2.604-1.454-4.762-1.454-2.04 0-3.377.516-4.409 1.454-1.712 1.571-2.157 3.799-2.157 6.074 0 5.581 4.245 8.349 7.388 8.349 2.087 0 3.354-.234 4.292-1.312.398-.446.703-1.127.797-1.549.07-.375.117-.469.306-.469.164 0 .211.164.211.352 0 .281-.281 2.322-.517 3.119-.117.398-.211.517-.609.681-.938.375-2.721.54-4.222.54-3.215-.001-5.912-.705-8.05-2.558"/><path d="m119.75 40.23c-.117 0-.164.047-.211.188l-1.267 3.214c-.234.586-.352 1.148-.352 1.43 0 .422.211.728.938.728h.352c.281 0 .352.047.352.188 0 .188-.141.234-.398.234-.751 0-1.759-.07-2.486-.07-.258 0-1.548.07-2.768.07-.305 0-.445-.047-.445-.234 0-.141.094-.188.281-.188.211 0 .54-.023.728-.048 1.078-.141 1.524-.938 1.993-2.109l5.887-14.542c.281-.68.422-.938.656-.938.212 0 .353.211.587.75.562 1.29 4.315 10.671 5.816 14.236.891 2.11 1.571 2.438 2.063 2.556.352.071.703.095.985.095.188 0 .305.023.305.188 0 .188-.211.234-1.079.234-.844 0-2.557 0-4.433-.047-.422-.023-.703-.023-.703-.188 0-.141.094-.188.328-.211.164-.048.328-.259.211-.54l-1.876-4.831c-.047-.117-.117-.164-.234-.164h-5.23m4.784-1.174c.117 0 .141-.071.117-.141l-2.11-5.769c-.023-.094-.047-.211-.117-.211s-.117.118-.141.211l-2.158 5.746c-.023.094 0 .165.095.165h4.314z"/><path d="m142.27 35.28c0-3.565 0-4.222-.047-4.972-.048-.797-.235-1.173-1.01-1.337-.188-.047-.587-.07-.915-.07-.258 0-.398-.047-.398-.211s.164-.211.516-.211c1.243 0 2.721.071 3.378.071.727 0 2.204-.071 3.611-.071 2.932 0 6.849 0 9.404 2.674 1.173 1.22 2.275 3.166 2.275 5.957 0 2.955-1.243 5.206-2.557 6.544-1.079 1.102-3.518 2.767-7.856 2.767-.845 0-1.806-.07-2.697-.141s-1.712-.141-2.298-.141c-.259 0-.774 0-1.337.023-.54 0-1.149.047-1.618.047-.306 0-.47-.07-.47-.234 0-.117.094-.188.375-.188.353 0 .634-.048.845-.095.469-.094.586-.609.68-1.289.118-.985.118-2.838.118-4.996v-4.127m2.931 2.58c0 2.486.023 4.292.047 4.737.023.587.07 1.525.258 1.783.305.445 1.22.938 3.072.938 2.392 0 3.986-.469 5.394-1.688 1.501-1.291 1.971-3.425 1.971-5.84 0-2.979-1.243-4.902-2.252-5.863-2.157-2.064-4.831-2.345-6.66-2.345-.47 0-1.337.07-1.524.164-.211.094-.281.211-.281.469-.023.797-.023 2.838-.023 4.69v2.955z"/><path d="m163.99 35.28c0-3.565 0-4.222-.047-4.972-.048-.797-.235-1.173-1.01-1.337-.188-.047-.587-.07-.915-.07-.258 0-.398-.047-.398-.211s.164-.211.516-.211c.634 0 1.313.023 1.9.023.609.024 1.148.047 1.478.047.75 0 5.417 0 5.862-.023.446-.047.821-.094 1.01-.141.117-.023.258-.094.375-.094s.141.094.141.211c0 .165-.117.446-.188 1.525-.023.234-.07 1.266-.117 1.548-.023.117-.07.258-.234.258s-.211-.117-.211-.329c0-.164-.023-.562-.141-.844-.164-.422-.398-.704-1.571-.844-.398-.047-2.861-.094-3.33-.094-.117 0-.164.07-.164.234v5.934c0 .165.023.258.164.258.516 0 3.213 0 3.752-.047.563-.047.915-.118 1.126-.352.164-.188.258-.305.375-.305.094 0 .164.047.164.188s-.094.516-.188 1.712c-.023.469-.094 1.407-.094 1.571 0 .188 0 .446-.211.446-.164 0-.211-.094-.211-.211-.023-.235-.023-.54-.094-.844-.117-.469-.446-.821-1.313-.915-.445-.047-2.768-.07-3.33-.07-.117 0-.141.094-.141.235v1.853c0 .797-.023 2.955 0 3.635.047 1.618.422 1.97 2.813 1.97.61 0 1.595 0 2.205-.281.609-.281.891-.773 1.056-1.735.047-.259.094-.353.258-.353.188 0 .188.188.188.423 0 .54-.188 2.134-.305 2.603-.164.61-.376.61-1.267.61-1.759 0-3.049-.047-4.058-.07-1.01-.047-1.735-.07-2.438-.07-.259 0-.774 0-1.337.023-.54 0-1.149.047-1.618.047-.306 0-.47-.07-.47-.234 0-.117.094-.188.375-.188.353 0 .634-.048.845-.095.469-.094.586-.609.68-1.289.118-.985.118-2.838.118-4.996v-4.129"/><path d="m186.2 43.979c-2.299-2.02-2.908-4.644-2.908-6.919 0-1.595.492-4.362 2.744-6.426 1.688-1.548 3.916-2.486 7.411-2.486 1.454 0 2.321.094 3.4.234.891.117 1.642.329 2.345.399.259.023.353.141.353.281 0 .188-.07.469-.117 1.29-.047.774-.023 2.064-.07 2.533-.023.352-.07.54-.282.54-.188 0-.234-.188-.234-.516-.023-.727-.328-1.548-.914-2.157-.774-.821-2.604-1.454-4.762-1.454-2.04 0-3.377.516-4.409 1.454-1.712 1.571-2.157 3.799-2.157 6.074 0 5.581 4.245 8.349 7.388 8.349 2.087 0 3.354-.234 4.292-1.312.398-.446.703-1.127.797-1.549.07-.375.117-.469.306-.469.164 0 .211.164.211.352 0 .281-.281 2.322-.517 3.119-.117.398-.211.517-.609.681-.938.375-2.721.54-4.222.54-3.215-.001-5.912-.705-8.05-2.558"/><path d="m216.65 35.935c.07 0 .141-.047.141-.164v-.492c0-3.565 0-4.222-.047-4.972-.047-.797-.235-1.173-1.01-1.337-.188-.047-.586-.07-.915-.07-.258 0-.398-.047-.398-.211s.164-.211.492-.211c1.267 0 2.744.071 3.378.071.562 0 2.04-.071 2.955-.071.328 0 .492.047.492.211s-.141.211-.422.211c-.188 0-.399.023-.681.07-.633.117-.82.516-.867 1.337-.047.75-.047 1.407-.047 4.972v4.127c0 2.158 0 4.01.117 5.02.07.656.211 1.172.914 1.266.329.047.845.095 1.196.095.258 0 .375.07.375.188 0 .164-.188.234-.469.234-1.524 0-3-.07-3.658-.07-.54 0-2.02.07-2.932.07-.329 0-.493-.07-.493-.234 0-.117.094-.188.376-.188.352 0 .633-.048.844-.095.469-.094.587-.609.681-1.289.117-.985.117-2.838.117-4.996v-2.064c0-.094-.07-.141-.141-.141h-8.959c-.07 0-.141.023-.141.141v2.064c0 2.158 0 4.01.117 5.02.07.656.211 1.172.914 1.266.328.047.845.095 1.196.095.258 0 .375.07.375.188 0 .164-.188.234-.469.234-1.524 0-3-.07-3.658-.07-.54 0-2.02.07-2.955.07-.306 0-.47-.07-.47-.234 0-.117.094-.188.375-.188.353 0 .634-.048.845-.095.469-.094.586-.609.68-1.289.118-.985.118-2.838.118-4.996v-4.127c0-3.565 0-4.222-.047-4.972-.048-.797-.235-1.173-1.01-1.337-.188-.047-.587-.07-.915-.07-.258 0-.398-.047-.398-.211s.164-.211.492-.211c1.267 0 2.744.071 3.378.071.562 0 2.04-.071 2.955-.071.328 0 .492.047.492.211s-.141.211-.422.211c-.188 0-.399.023-.681.07-.633.117-.82.516-.867 1.337-.047.75-.047 1.407-.047 4.972v.492c0 .117.07.164.141.164h8.961"/><path d="m227.41 35.28c0-3.565 0-4.222-.047-4.972-.047-.797-.282-1.196-.798-1.313-.258-.07-.562-.094-.845-.094-.234 0-.375-.047-.375-.234 0-.141.188-.188.563-.188.891 0 2.368.071 3.049.071.586 0 1.97-.071 2.86-.071.306 0 .493.047.493.188 0 .188-.141.234-.375.234-.235 0-.423.023-.704.07-.633.117-.82.516-.867 1.337-.047.75-.047 1.407-.047 4.972v4.127c0 2.275 0 4.128.094 5.136.07.633.234 1.055.938 1.148.328.047.845.095 1.196.095.258 0 .375.07.375.188 0 .164-.188.234-.445.234-1.548 0-3.03-.07-3.659-.07-.539 0-2.02.07-2.954.07-.306 0-.47-.07-.47-.234 0-.117.094-.188.375-.188.353 0 .634-.048.845-.095.469-.094.609-.492.68-1.172.118-.984.118-2.838.118-5.113v-4.126"/><path d="m240.95 39.41c0 3 0 4.621.492 5.04.398.352 1.01.516 2.838.516 1.243 0 2.157-.023 2.744-.656.281-.305.562-.962.609-1.407.023-.212.07-.353.258-.353.164 0 .188.117.188.399 0 .258-.164 2.02-.352 2.696-.141.517-.258.634-1.478.634-1.688 0-2.908-.047-3.964-.07-1.055-.047-1.899-.07-2.86-.07-.259 0-.774 0-1.337.023-.54 0-1.149.047-1.618.047-.306 0-.47-.07-.47-.234 0-.117.094-.188.375-.188.353 0 .634-.048.845-.095.469-.094.586-.609.68-1.289.118-.985.118-2.838.118-4.996v-4.127c0-3.565 0-4.222-.047-4.972-.048-.797-.235-1.173-1.01-1.337-.188-.047-.469-.07-.774-.07-.258 0-.398-.047-.398-.211s.164-.211.516-.211c1.103 0 2.58.071 3.214.071.562 0 2.274-.071 3.189-.071.328 0 .492.047.492.211s-.141.211-.422.211c-.258 0-.634.023-.915.07-.633.117-.82.516-.867 1.337-.047.75-.047 1.407-.047 4.972v4.128"/><path d="m252.21 35.28c0-3.565 0-4.222-.047-4.972-.048-.797-.235-1.173-1.01-1.337-.188-.047-.587-.07-.915-.07-.258 0-.398-.047-.398-.211s.164-.211.516-.211c.634 0 1.313.023 1.9.023.609.024 1.148.047 1.478.047.75 0 5.417 0 5.862-.023.446-.047.821-.094 1.01-.141.117-.023.258-.094.375-.094s.141.094.141.211c0 .165-.117.446-.188 1.525-.023.234-.07 1.266-.117 1.548-.023.117-.07.258-.234.258s-.211-.117-.211-.329c0-.164-.023-.562-.141-.844-.164-.422-.398-.704-1.571-.844-.398-.047-2.861-.094-3.33-.094-.117 0-.164.07-.164.234v5.934c0 .165.023.258.164.258.516 0 3.213 0 3.752-.047.563-.047.915-.118 1.126-.352.164-.188.258-.305.375-.305.094 0 .164.047.164.188s-.094.516-.188 1.712c-.023.469-.094 1.407-.094 1.571 0 .188 0 .446-.211.446-.164 0-.211-.094-.211-.211-.023-.235-.023-.54-.094-.844-.117-.469-.446-.821-1.313-.915-.445-.047-2.768-.07-3.33-.07-.117 0-.141.094-.141.235v1.853c0 .797-.023 2.955 0 3.635.047 1.618.422 1.97 2.813 1.97.61 0 1.595 0 2.205-.281.609-.281.891-.773 1.056-1.735.047-.259.094-.353.258-.353.188 0 .188.188.188.423 0 .54-.188 2.134-.305 2.603-.164.61-.376.61-1.267.61-1.759 0-3.049-.047-4.058-.07-1.01-.047-1.735-.07-2.438-.07-.259 0-.774 0-1.337.023-.54 0-1.149.047-1.618.047-.306 0-.47-.07-.47-.234 0-.117.094-.188.375-.188.353 0 .634-.048.845-.095.469-.094.586-.609.68-1.289.118-.985.118-2.838.118-4.996v-4.129"/></g></svg>